<svg width="150" height="150" viewBox="0 0 150 150" fill="none" xmlns="http://www.w3.org/2000/svg">
<rect width="150" height="150" />
<ellipse cx="74.7805" cy="73.7101" rx="48.0776" ry="47.0013" fill="#E7BF60"/>
<path d="M75.0001 0L87.3955 20.9888H62.6047L75.0001 0Z" fill="#E7BF60"/>
<path d="M73.855 150L61.4596 129.011L86.2504 129.011L73.855 150Z" fill="#E7BF60"/>
<path d="M150 73.3208L128.531 85.4387L128.531 61.2029L150 73.3208Z" fill="#E7BF60"/>
<path d="M131.838 22.9675L123.527 45.8005L107.456 27.3469L131.838 22.9675Z" fill="#E7BF60"/>
<path d="M132.271 127.071L108.325 120.798L125.854 103.661L132.271 127.071Z" fill="#E7BF60"/>
<path d="M-1.13718e-09 73.6849L21.4695 85.8028L21.4695 61.567L-1.13718e-09 73.6849Z" fill="#E7BF60"/>
<path d="M15.8459 19.9688L22.2622 43.3788L39.7919 26.2415L15.8459 19.9688Z" fill="#E7BF60"/>
<path d="M15.8459 127.071L39.792 120.798L22.2622 103.661L15.8459 127.071Z" fill="#E7BF60"/>
</svg>
